<!-- Generated by IcoMoon.io -->
<svg version="1.1" xmlns="http://www.w3.org/2000/svg" width="32" height="32" viewBox="-1 -1 34 34">
    <defs>
        <style type="text/css">
            <![CDATA[
        .icon {
          fill: #3F4B64;
          stroke: none;
          pointer-events: none;
          opacity: .85;
            stroke-width: 1;
            stroke-linecap:round;
            stroke-linejoin:round;
        }
      ]]>
        </style>
    </defs>
<title>database</title>
<path class="icon" d="M16 0c-8.837 0-16 2.239-16 5v4c0 2.761 7.163 5 16 5s16-2.239 16-5v-4c0-2.761-7.163-5-16-5z"></path>
<path class="icon" d="M16 17c-8.837 0-16-2.239-16-5v6c0 2.761 7.163 5 16 5s16-2.239 16-5v-6c0 2.761-7.163 5-16 5z"></path>
<path class="icon" d="M16 26c-8.837 0-16-2.239-16-5v6c0 2.761 7.163 5 16 5s16-2.239 16-5v-6c0 2.761-7.163 5-16 5z"></path>
</svg>
