<!-- Generated by IcoMoon.io -->
<svg version="1.1" xmlns="http://www.w3.org/2000/svg" width="32" height="32" viewBox="0 0 32 32">
    <defs>
        <style type="text/css">
            <![CDATA[
        .icon {
          fill: #3F4B64;
          stroke: none;
          pointer-events: none;
          opacity: .85;
          stroke-width: 1;
          stroke-linecap:round;
          stroke-linejoin:round;
        }
      ]]>
        </style>
    </defs>
<title>pan</title>
<path class="icon" d="M32 0h-13l5 5-6 6 3 3 6-6 5 5z" transform="translate(16,16) rotate(45) scale(0.7) translate(-16,-16)"></path>
<path class="icon" d="M32 32v-13l-5 5-6-6-3 3 6 6-5 5z" transform="translate(16,16) rotate(45) scale(0.7) translate(-16,-16)"></path>
<path class="icon" d="M0 32h13l-5-5 6-6-3-3-6 6-5-5z" transform="translate(16,16) rotate(45) scale(0.7) translate(-16,-16)"></path>
<path class="icon" d="M0 0v13l5-5 6 6 3-3-6-6 5-5z" transform="translate(16,16) rotate(45) scale(0.7) translate(-16,-16)"></path>
</svg>
